<svg width="410" height="150" viewBox="0 0 410 150" version="1.1" xmlns="http://www.w3.org/2000/svg" xmlns:xlink="http://www.w3.org/1999/xlink">
<title>Group</title>
<desc>Created using Figma</desc>
<g id="Canvas" transform="matrix(2 0 0 2 76 2012)">
<rect x="-38" y="-1006" width="205" height="75" fill="#E5E5E5"/>
<clipPath id="clip-0" clip-rule="evenodd">
<path d="M -128 -1020L 192 -1020L 192 -452L -128 -452L -128 -1020Z" fill="#FFFFFF"/>
</clipPath>
<g id="First" clip-path="url(#clip-0)">
<path d="M -128 -1020L 192 -1020L 192 -452L -128 -452L -128 -1020Z"/>
<g id="Stickers world">
<use xlink:href="#path0_fill" transform="translate(-75 -963)" fill="#DDDDDD"/>
</g>
<g id="Group">
<g id="Group">
<g id="Star">
<use xlink:href="#path1_fill" transform="matrix(0.626447 0.779464 -0.779464 0.626447 101.78 -988.74)" fill="#C4C4C4"/>
</g>
<g id="Ellipse 8">
<use xlink:href="#path2_fill" transform="translate(3 -1003)" fill="#C4C4C4"/>
</g>
<g id="Ellipse 8">
<use xlink:href="#path3_fill" transform="translate(62 -996)" fill="#C4C4C4"/>
</g>
<g id="Ellipse 8">
<use xlink:href="#path4_fill" transform="translate(-38 -986)" fill="#C4C4C4"/>
</g>
<g id="Ellipse 8">
<use xlink:href="#path4_fill" transform="translate(42 -976)" fill="#C4C4C4"/>
</g>
<g id="Ellipse 8">
<use xlink:href="#path4_fill" transform="translate(162 -1006)" fill="#C4C4C4"/>
</g>
<g id="Ellipse 8">
<use xlink:href="#path4_fill" transform="translate(152 -936)" fill="#C4C4C4"/>
</g>
</g>
</g>
</g>
</g>
<defs>
<path id="path0_fill" d="M 24.0863 65.152C 21.3982 65.152 19.0302 64.6827 16.9823 63.744C 14.9342 62.8053 13.3556 61.504 12.2462 59.84C 11.1369 58.1333 10.5823 56.1707 10.5823 53.952C 10.5823 52.0747 10.9662 50.368 11.7343 48.832C 12.5449 47.296 13.6116 46.08 14.9342 45.184C 16.2996 44.288 17.7929 43.84 19.4143 43.84C 20.9076 43.84 22.1663 44.224 23.1903 44.992C 24.2142 45.7173 24.8542 46.7413 25.1103 48.064C 22.8916 48.064 21.1209 48.6613 19.7983 49.856C 18.4756 51.008 17.8142 52.5867 17.8142 54.592C 17.8142 56.4267 18.3689 57.8987 19.4782 59.008C 20.5876 60.1173 22.0596 60.672 23.8942 60.672C 26.1556 60.672 28.0116 59.9253 29.4622 58.432C 30.9556 56.896 31.7022 54.976 31.7022 52.672C 31.7022 50.6667 31.1476 48.768 30.0382 46.976C 28.9289 45.184 27.2649 43.008 25.0462 40.448C 22.7423 37.8027 20.9929 35.5413 19.7983 33.664C 18.6462 31.744 18.0702 29.6533 18.0702 27.392C 18.0702 25.1733 18.6889 23.1893 19.9263 21.44C 21.1636 19.648 22.8702 18.24 25.0462 17.216C 27.2222 16.192 29.6756 15.68 32.4062 15.68C 35.8622 15.68 38.6143 16.4907 40.6623 18.112C 42.7529 19.7333 43.7982 21.9093 43.7982 24.64C 43.7982 26.432 43.3503 27.8827 42.4543 28.992C 41.5583 30.1013 40.3849 30.656 38.9342 30.656C 37.3129 30.656 36.0116 29.9947 35.0303 28.672C 35.8409 28.0747 36.4809 27.2853 36.9503 26.304C 37.4196 25.3227 37.6542 24.2987 37.6542 23.232C 37.6542 21.8667 37.2489 20.7787 36.4382 19.968C 35.6276 19.1573 34.5182 18.752 33.1103 18.752C 31.4036 18.752 29.9956 19.3707 28.8862 20.608C 27.8196 21.8027 27.2862 23.3387 27.2862 25.216C 27.2862 26.9227 27.7769 28.5227 28.7582 30.016C 29.7396 31.4667 31.2756 33.344 33.3662 35.648C 35.0729 37.4827 36.4382 39.0613 37.4622 40.384C 38.5289 41.7067 39.4249 43.2427 40.1502 44.992C 40.9183 46.6987 41.3022 48.5547 41.3022 50.56C 41.3022 53.2907 40.5342 55.7653 38.9982 57.984C 37.5049 60.2027 35.4356 61.952 32.7903 63.232C 30.1876 64.512 27.2862 65.152 24.0863 65.152ZM 51.2422 64.384C 49.1943 64.384 47.5303 63.744 46.2502 62.464C 45.0129 61.184 44.3942 59.264 44.3942 56.704C 44.3942 55.6373 44.5649 54.2507 44.9062 52.544L 48.7462 34.56L 46.6343 34.56L 47.1463 32L 49.2583 32L 51.1782 23.168L 60.6503 21.888L 58.4742 32L 62.3143 32L 61.8022 34.56L 57.9622 34.56L 53.8663 53.76C 53.6956 54.4 53.6103 55.0827 53.6103 55.808C 53.6103 56.6613 53.8022 57.28 54.1862 57.664C 54.6129 58.0053 55.2956 58.176 56.2343 58.176C 57.4716 58.176 58.6236 57.664 59.6903 56.64C 60.7569 55.5733 61.5249 54.208 61.9942 52.544L 64.6822 52.544C 63.1036 57.152 61.0769 60.288 58.6023 61.952C 56.1276 63.5733 53.6742 64.384 51.2422 64.384ZM 72.6567 28.544C 71.2487 28.544 70.0541 28.0533 69.0728 27.072C 68.0914 26.0907 67.6007 24.896 67.6007 23.488C 67.6007 22.08 68.0914 20.8853 69.0728 19.904C 70.0541 18.88 71.2487 18.368 72.6567 18.368C 74.0647 18.368 75.2594 18.88 76.2408 19.904C 77.2647 20.8853 77.7767 22.08 77.7767 23.488C 77.7767 24.896 77.2647 26.0907 76.2408 27.072C 75.2594 28.0533 74.0647 28.544 72.6567 28.544ZM 68.3047 64.384C 66.2568 64.384 64.5928 63.744 63.3127 62.464C 62.0754 61.184 61.4567 59.264 61.4567 56.704C 61.4567 55.6373 61.6274 54.2507 61.9688 52.544L 66.3208 32L 75.5367 32L 70.9288 53.76C 70.7581 54.4 70.6728 55.0827 70.6728 55.808C 70.6728 56.6613 70.8647 57.28 71.2487 57.664C 71.6754 58.0053 72.3581 58.176 73.2968 58.176C 74.5341 58.176 75.6861 57.664 76.7528 56.64C 77.8194 55.5733 78.5874 54.208 79.0567 52.544L 81.7447 52.544C 80.1661 57.152 78.1394 60.288 75.6648 61.952C 73.1901 63.5733 70.7367 64.384 68.3047 64.384ZM 88.1833 64.384C 85.0259 64.384 82.5726 63.5733 80.8233 61.952C 79.0739 60.288 78.1992 57.7067 78.1992 54.208C 78.1992 51.264 78.7752 48.0213 79.9273 44.48C 81.1219 40.9387 82.9992 37.888 85.5592 35.328C 88.1619 32.7253 91.4473 31.424 95.4153 31.424C 97.9753 31.424 99.7886 31.9787 100.855 33.088C 101.965 34.1973 102.519 35.6053 102.519 37.312C 102.519 38.8053 102.199 39.9573 101.559 40.768C 100.919 41.5787 100.109 41.984 99.1273 41.984C 98.4019 41.984 97.6553 41.728 96.8873 41.216C 97.3993 39.808 97.6553 38.5493 97.6553 37.44C 97.6553 36.6293 97.5059 35.9893 97.2073 35.52C 96.9086 35.0507 96.4606 34.816 95.8633 34.816C 94.5833 34.816 93.3033 35.8613 92.0232 37.952C 90.7432 40.0427 89.6979 42.5813 88.8872 45.568C 88.0766 48.5547 87.6713 51.2427 87.6713 53.632C 87.6713 55.7227 88.0339 57.152 88.7592 57.92C 89.4846 58.6453 90.6579 59.008 92.2793 59.008C 94.5833 59.008 96.5459 58.4747 98.1672 57.408C 99.8312 56.3413 101.645 54.72 103.607 52.544L 105.783 52.544C 101.047 60.4373 95.1806 64.384 88.1833 64.384ZM 127.658 64.384C 125.012 64.384 123.007 63.7653 121.642 62.528C 120.276 61.248 119.594 59.4347 119.594 57.088C 119.594 56.064 119.722 54.9547 119.978 53.76L 120.49 51.264C 120.66 50.5387 120.746 49.7493 120.746 48.896C 120.746 46.848 119.978 45.824 118.442 45.824C 117.759 45.824 117.034 46.016 116.266 46.4C 115.54 46.784 114.687 47.3813 113.706 48.192L 110.378 64L 101.162 64L 110.442 20.48L 119.914 19.2L 115.114 41.728L 127.466 32L 133.802 32L 121.002 40.896C 121.642 40.7253 122.346 40.64 123.114 40.64C 125.418 40.64 127.167 41.344 128.362 42.752C 129.556 44.16 130.154 45.952 130.154 48.128C 130.154 49.024 130.068 49.8347 129.898 50.56L 129.194 53.76C 128.98 54.528 128.874 55.2107 128.874 55.808C 128.874 57.3867 129.706 58.176 131.37 58.176C 132.65 58.176 133.674 57.728 134.442 56.832C 135.21 55.8933 135.978 54.464 136.746 52.544L 139.434 52.544C 136.788 60.4373 132.863 64.384 127.658 64.384ZM 145.871 64.384C 142.713 64.384 140.26 63.5733 138.511 61.952C 136.761 60.288 135.887 57.7067 135.887 54.208C 135.887 51.264 136.463 48.0213 137.615 44.48C 138.767 40.9387 140.644 37.888 143.247 35.328C 145.849 32.7253 149.156 31.424 153.167 31.424C 157.86 31.424 160.207 33.472 160.207 37.568C 160.207 39.9573 159.524 42.1547 158.159 44.16C 156.793 46.1653 154.98 47.7867 152.719 49.024C 150.457 50.2187 148.047 50.9013 145.487 51.072C 145.401 52.352 145.359 53.2053 145.359 53.632C 145.359 55.7227 145.721 57.152 146.447 57.92C 147.172 58.6453 148.345 59.008 149.967 59.008C 152.271 59.008 154.233 58.4747 155.855 57.408C 157.519 56.3413 159.332 54.72 161.295 52.544L 163.471 52.544C 158.735 60.4373 152.868 64.384 145.871 64.384ZM 145.999 48C 147.577 47.9147 149.071 47.36 150.479 46.336C 151.929 45.312 153.081 44.0107 153.935 42.432C 154.831 40.8533 155.279 39.1893 155.279 37.44C 155.279 35.6907 154.745 34.816 153.679 34.816C 152.143 34.816 150.628 36.16 149.135 38.848C 147.684 41.536 146.639 44.5867 145.999 48ZM 165.633 32L 174.849 32L 174.017 35.968C 175.468 34.688 176.769 33.7067 177.921 33.024C 179.116 32.3413 180.396 32 181.761 32C 183.127 32 184.193 32.4693 184.961 33.408C 185.772 34.3467 186.177 35.4773 186.177 36.8C 186.177 38.0373 185.772 39.1253 184.961 40.064C 184.151 41.0027 183.02 41.472 181.569 41.472C 180.631 41.472 179.991 41.2587 179.649 40.832C 179.351 40.3627 179.116 39.7013 178.945 38.848C 178.817 38.2933 178.689 37.888 178.561 37.632C 178.433 37.376 178.199 37.248 177.857 37.248C 176.961 37.248 176.193 37.44 175.553 37.824C 174.956 38.1653 174.167 38.784 173.185 39.68L 168.065 64L 158.849 64L 165.633 32ZM 192.64 64.384C 190.592 64.384 188.864 64 187.456 63.232C 186.048 62.4213 185.002 61.3973 184.32 60.16C 183.637 58.88 183.296 57.5573 183.296 56.192C 183.296 54.784 183.637 53.568 184.32 52.544C 184.96 51.4773 185.749 50.7093 186.688 50.24C 188.352 47.2533 189.802 44.2453 191.04 41.216C 192.277 38.144 193.45 34.8373 194.56 31.296L 204.032 30.016C 204.245 35.4773 204.608 41.3867 205.12 47.744C 205.333 50.304 205.44 52.16 205.44 53.312C 205.44 55.9147 204.778 58.048 203.456 59.712C 202.133 61.376 200.49 62.5707 198.528 63.296C 196.608 64.0213 194.645 64.384 192.64 64.384ZM 190.592 59.328C 192.17 59.328 193.493 58.8587 194.56 57.92C 195.626 56.9813 196.16 55.4667 196.16 53.376C 196.16 52.096 196.032 50.304 195.776 48C 195.349 43.136 195.072 39.872 194.944 38.208C 193.92 41.5787 192.192 45.6107 189.76 50.304C 190.741 50.816 191.232 51.5627 191.232 52.544C 191.232 53.3547 190.954 54.08 190.4 54.72C 189.888 55.36 189.226 55.68 188.416 55.68C 187.52 55.68 186.944 55.4027 186.688 54.848C 186.688 56.384 186.986 57.5147 187.584 58.24C 188.224 58.9653 189.226 59.328 190.592 59.328ZM 42.336 118.384C 40.288 118.384 38.624 117.744 37.344 116.464C 36.1067 115.184 35.488 113.264 35.488 110.704C 35.488 109.637 35.6587 108.251 36 106.544L 40.352 86L 49.568 86L 44.96 107.76C 44.832 108.272 44.768 108.805 44.768 109.36C 44.768 111.237 45.408 112.176 46.688 112.176C 47.8827 112.176 48.9067 111.685 49.76 110.704C 50.6133 109.68 51.296 108.293 51.808 106.544L 56.16 86L 65.376 86L 60.768 107.76C 60.5547 108.827 60.448 109.595 60.448 110.064C 60.448 111.472 61.1733 112.176 62.624 112.176C 64.5867 112.176 66.4 110.939 68.064 108.464C 69.7707 105.989 71.136 103.045 72.16 99.632C 73.184 96.2187 73.696 93.2747 73.696 90.8C 73.6107 91.0133 73.3333 91.184 72.864 91.312C 72.3947 91.3973 71.9893 91.44 71.648 91.44C 70.9227 91.44 70.3467 91.0987 69.92 90.416C 69.536 89.7333 69.344 88.9867 69.344 88.176C 69.344 87.152 69.664 86.32 70.304 85.68C 70.9867 85.04 71.9893 84.72 73.312 84.72C 74.72 84.72 75.744 85.2533 76.384 86.32C 77.024 87.344 77.344 88.6667 77.344 90.288C 77.344 94.128 76.6827 98.2453 75.36 102.64C 74.0373 106.992 72.0107 110.704 69.28 113.776C 66.5493 116.848 63.1573 118.384 59.104 118.384C 57.0133 118.384 55.3067 117.936 53.984 117.04C 52.6613 116.144 51.808 114.8 51.424 113.008C 49.0347 116.592 46.0053 118.384 42.336 118.384ZM 87.6565 118.256C 84.4992 118.256 82.0032 117.445 80.1685 115.824C 78.3338 114.203 77.4165 111.643 77.4165 108.144C 77.4165 105.243 78.0138 102.021 79.2085 98.48C 80.4032 94.9387 82.3232 91.888 84.9685 89.328C 87.6138 86.7253 90.9418 85.424 94.9525 85.424C 100.414 85.424 103.145 88.8373 103.145 95.664L 103.145 95.728C 103.272 95.7707 103.507 95.792 103.848 95.792C 105.257 95.792 106.878 95.4293 108.712 94.704C 110.547 93.936 112.211 93.0187 113.704 91.952L 114.28 93.68C 113.043 95.0027 111.422 96.1333 109.417 97.072C 107.454 97.968 105.299 98.608 102.952 98.992C 102.611 102.875 101.736 106.267 100.329 109.168C 98.9205 112.069 97.1072 114.309 94.8885 115.888C 92.6698 117.467 90.2592 118.256 87.6565 118.256ZM 90.2165 112.496C 91.2405 112.496 92.2645 111.92 93.2885 110.768C 94.3125 109.573 95.2085 107.973 95.9765 105.968C 96.7445 103.92 97.2992 101.659 97.6405 99.184C 96.4885 98.928 95.9125 98.032 95.9125 96.496C 95.9125 94.7467 96.5738 93.5947 97.8965 93.04C 97.8112 91.632 97.5978 90.672 97.2565 90.16C 96.9152 89.6053 96.3178 89.328 95.4645 89.328C 94.0565 89.328 92.6912 90.352 91.3685 92.4C 90.0458 94.448 88.9792 96.9013 88.1685 99.76C 87.3578 102.619 86.9525 105.136 86.9525 107.312C 86.9525 109.36 87.1872 110.747 87.6565 111.472C 88.1258 112.155 88.9792 112.496 90.2165 112.496ZM 110.79 86L 120.005 86L 119.174 89.968C 120.624 88.688 121.925 87.7067 123.077 87.024C 124.272 86.3413 125.552 86 126.917 86C 128.283 86 129.35 86.4693 130.118 87.408C 130.928 88.3467 131.333 89.4773 131.333 90.8C 131.333 92.0373 130.928 93.1253 130.118 94.064C 129.307 95.0027 128.176 95.472 126.726 95.472C 125.787 95.472 125.147 95.2587 124.806 94.832C 124.507 94.3627 124.272 93.7013 124.101 92.848C 123.973 92.2933 123.846 91.888 123.718 91.632C 123.59 91.376 123.355 91.248 123.014 91.248C 122.118 91.248 121.349 91.44 120.71 91.824C 120.112 92.1653 119.323 92.784 118.342 93.68L 113.221 118L 104.006 118L 110.79 86ZM 136.836 118.384C 134.788 118.384 133.124 117.744 131.844 116.464C 130.607 115.184 129.988 113.264 129.988 110.704C 129.988 109.637 130.159 108.251 130.5 106.544L 137.348 74.48L 146.82 73.2L 139.46 107.76C 139.289 108.4 139.204 109.083 139.204 109.808C 139.204 110.661 139.396 111.28 139.78 111.664C 140.207 112.005 140.889 112.176 141.828 112.176C 143.065 112.176 144.217 111.664 145.284 110.64C 146.351 109.573 147.119 108.208 147.588 106.544L 150.276 106.544C 148.697 111.152 146.671 114.288 144.196 115.952C 141.721 117.573 139.268 118.384 136.836 118.384ZM 155.242 118.384C 152.811 118.384 150.784 117.552 149.163 115.888C 147.541 114.224 146.73 111.621 146.73 108.08C 146.73 104.923 147.349 101.616 148.587 98.16C 149.866 94.6613 151.744 91.7173 154.219 89.328C 156.736 86.896 159.722 85.68 163.179 85.68C 164.928 85.68 166.229 85.9787 167.083 86.576C 167.936 87.1733 168.362 87.9627 168.362 88.944L 168.362 89.2L 171.499 74.48L 180.971 73.2L 173.611 107.76C 173.44 108.4 173.354 109.019 173.354 109.616C 173.354 111.323 174.229 112.176 175.979 112.176C 176.747 112.176 177.429 112.048 178.027 111.792C 177.856 113.925 177.088 115.568 175.722 116.72C 174.4 117.829 172.821 118.384 170.986 118.384C 169.28 118.384 167.829 117.957 166.635 117.104C 165.483 116.208 164.715 114.864 164.33 113.072C 161.771 116.613 158.741 118.384 155.242 118.384ZM 159.403 112.176C 160.341 112.176 161.28 111.771 162.219 110.96C 163.2 110.149 163.925 109.019 164.395 107.568L 164.65 106.544L 167.787 91.888C 167.403 90.3947 166.528 89.648 165.163 89.648C 163.456 89.648 161.92 90.6507 160.554 92.656C 159.189 94.6187 158.123 97.008 157.354 99.824C 156.587 102.597 156.203 105.051 156.203 107.184C 156.203 109.317 156.501 110.683 157.099 111.28C 157.738 111.877 158.507 112.176 159.403 112.176Z"/>
<path id="path1_fill" d="M 7.65211 0L 9.37012 5.48949L 14.9297 5.48949L 10.4319 8.88218L 12.1499 14.3717L 7.65211 10.979L 3.15431 14.3717L 4.87232 8.88218L 0.374521 5.48949L 5.93411 5.48949L 7.65211 0Z"/>
<path id="path2_fill" d="M 8 4C 8 6.20914 6.20914 8 4 8C 1.79086 8 0 6.20914 0 4C 0 1.79086 1.79086 0 4 0C 6.20914 0 8 1.79086 8 4Z"/>
<path id="path3_fill" d="M 6 3C 6 4.65685 4.65685 6 3 6C 1.34315 6 0 4.65685 0 3C 0 1.34315 1.34315 0 3 0C 4.65685 0 6 1.34315 6 3Z"/>
<path id="path4_fill" d="M 5 2.5C 5 3.88071 3.88071 5 2.5 5C 1.11929 5 0 3.88071 0 2.5C 0 1.11929 1.11929 0 2.5 0C 3.88071 0 5 1.11929 5 2.5Z"/>
</defs>
</svg>
