<svg width="11" height="18" viewBox="0 0 11 18" version="1.1" xmlns="http://www.w3.org/2000/svg" xmlns:xlink="http://www.w3.org/1999/xlink">
<title>back</title>
<desc>Created using Figma</desc>
<g id="Canvas" transform="translate(-250 341)">
<rect x="250" y="-341" width="11" height="18" fill="#E5E5E5"/>
<clipPath id="clip-0" clip-rule="evenodd">
<path d="M 232 -357L 552 -357L 552 211L 232 211L 232 -357Z" fill="#FFFFFF"/>
</clipPath>
<g id="Adjust" clip-path="url(#clip-0)">
<path d="M 232 -357L 552 -357L 552 211L 232 211L 232 -357Z"/>
<g id="Subtract">
<use xlink:href="#path0_fill" transform="translate(204 -363)" fill="#000000" fill-opacity="0.5"/>
</g>
<g id="top bar">
<g id="top bar">
<g id="Rectangle 16">
<use xlink:href="#path1_fill" transform="translate(232 -357)" fill="#000000" fill-opacity="0.6"/>
</g>
<g id="back">
<use xlink:href="#path2_stroke" transform="translate(252 -340)" fill="#FFFFFF"/>
</g>
</g>
</g>
</g>
</g>
<defs>
<path id="path0_fill" fill-rule="evenodd" d="M 375 0L 0 0L 0 617L 375 617L 375 0ZM 304 127L 72 127L 72 438L 304 438L 304 127Z"/>
<path id="path1_fill" d="M 0 0L 320 0L 320 50L 0 50L 0 0Z"/>
<path id="path2_stroke" d="M 0 8L -0.707107 7.29289L -1.41421 8L -0.707107 8.70711L 0 8ZM 7.29289 -0.707107L -0.707107 7.29289L 0.707107 8.70711L 8.70711 0.707107L 7.29289 -0.707107ZM -0.707107 8.70711L 7.29289 16.7071L 8.70711 15.2929L 0.707107 7.29289L -0.707107 8.70711Z"/>
</defs>
</svg>
