<svg width="25" height="25" viewBox="0 0 25 25" version="1.1" xmlns="http://www.w3.org/2000/svg" xmlns:xlink="http://www.w3.org/1999/xlink">
<title>rotate</title>
<desc>Created using Figma</desc>
<g id="Canvas" transform="translate(-467 345)">
<g id="rotate">
<g id="Subtract">
<use xlink:href="#path0_fill" transform="matrix(0.644809 -0.764344 0.764344 0.644809 466.509 -331.523)" fill="#FFFFFF"/>
</g>
<g id="Vector 2">
<use xlink:href="#path1_stroke" transform="matrix(0.913642 -0.40652 0.40652 0.913642 480.511 -337.895)" fill="#FFFFFF"/>
</g>
</g>
</g>
<defs>
<path id="path0_fill" fill-rule="evenodd" d="M 8.46078 15.2723C 4.91437 15.2723 2 12.3232 2.00002 8.63611C 2.00002 4.94906 4.91437 1.99999 8.4608 2C 12.0072 2 14.9216 4.94906 14.9216 8.63611C 14.9216 9.59678 14.7237 10.5074 14.3684 11.3288L 16.5016 11.3287C 16.7743 10.4804 16.9216 9.57508 16.9216 8.63613C 16.9216 3.88855 13.1553 -1.64432e-05 8.4608 1.36064e-10C 3.76626 -2.65604e-05 -4.54478e-07 3.88856 4.11338e-14 8.63614C 4.54478e-07 13.3837 3.76627 17.2722 8.46079 17.2722L 8.46078 15.2723Z"/>
<path id="path1_stroke" d="M 3.50039 3.62574L 2.97253 4.47507L 3.96063 5.08916L 4.41936 4.02005L 3.50039 3.62574ZM 5.97509 0.394313C 6.19286 -0.113223 5.95796 -0.701203 5.45043 -0.918976C 4.94289 -1.13675 4.35491 -0.90185 4.13714 -0.394313L 5.97509 0.394313ZM 0.527851 0.600958C 0.0587755 0.309434 -0.557813 0.453368 -0.849337 0.922443C -1.14086 1.39152 -0.996927 2.00811 -0.527851 2.29963L 0.527851 0.600958ZM 4.41936 4.02005L 5.97509 0.394313L 4.13714 -0.394313L 2.58141 3.23142L 4.41936 4.02005ZM 4.02824 2.7764L 0.527851 0.600958L -0.527851 2.29963L 2.97253 4.47507L 4.02824 2.7764Z"/>
</defs>
</svg>
