<svg xmlns="http://www.w3.org/2000/svg" xmlns:xlink="http://www.w3.org/1999/xlink" width="24" height="24"><g opacity=".32" fill-opacity=".881" stroke-width=".961"><use xlink:href="#path0_fill" transform="scale(1.03395 1.04822) rotate(45 4.78 18.484)" width="100%" height="100%"/><use xlink:href="#path1_fill" transform="matrix(1.03395 0 0 1.04822 2 3)" width="100%" height="100%"/><use xlink:href="#path2_stroke" transform="matrix(1.03395 0 0 1.04822 5.937 21)" width="100%" height="100%"/></g><defs id="defs20"><path id="path0_fill" d="M0 2a2 2 0 0 1 2-2h6.799a2 2 0 0 1 2 2v8.414H0z"/><path id="path1_fill" d="M13.243 1.293L18.05 6.1a1 1 0 0 1 0 1.415l-9.657 9.657h1.415l8.95-8.95a2 2 0 0 0 0-2.829L13.95.586a2 2 0 0 0-2.828 0L.585 11.12a2 2 0 0 0 0 2.829l3.222 3.222h1.414l-3.929-3.93a1 1 0 0 1 0-1.414L11.829 1.293a1 1 0 0 1 1.414 0z" fill-rule="evenodd"/><path id="path2_stroke" d="M0 0h6v-1H0z"/></defs></svg>