<svg width="27" height="38" viewBox="0 0 27 38" version="1.1" xmlns="http://www.w3.org/2000/svg" xmlns:xlink="http://www.w3.org/1999/xlink">
<title>Vector 8</title>
<desc>Created using Figma</desc>
<g id="Canvas" transform="translate(-743 -1011)">
<g id="Vector 8">
<use xlink:href="#path0_stroke" transform="translate(744 1012)" fill="#FFFFFF"/>
</g>
</g>
<defs>
<path id="path0_stroke" d="M -0.788024 35.2305C -1.12804 35.6657 -1.05086 36.2941 -0.615644 36.6341C -0.18043 36.9742 0.448014 36.897 0.788024 36.4618L -0.788024 35.2305ZM 14.2536 17.9782L 13.3732 17.5041L 14.2536 17.9782ZM 19.446 7.23705L 20.4212 7.45868L 19.446 7.23705ZM 18.1225 1.23017L 18.8156 1.951L 18.1225 1.23017ZM 11.4538 7.03343L 10.8399 6.24408L 11.4538 7.03343ZM 21.075 3.2664L 20.1245 3.57714L 21.075 3.2664ZM 23.8458 15.2183C 24.0928 15.7123 24.6935 15.9125 25.1874 15.6655C 25.6814 15.4186 25.8816 14.8179 25.6347 14.3239L 23.8458 15.2183ZM 0.788024 36.4618C 3.09957 33.5011 5.74966 30.7165 8.29376 27.8146C 10.8378 24.9122 13.2976 21.854 15.1341 18.4523L 13.3732 17.5041C 11.6315 20.7476 9.30688 23.6251 6.7898 26.4962C 4.27283 29.3678 1.5852 32.1947 -0.788024 35.2305L 0.788024 36.4618ZM 15.1341 18.4523C 16.9838 15.0172 19.4626 11.6765 20.4212 7.45868L 18.4709 7.01543C 17.5927 10.8796 15.4055 13.7297 13.3732 17.5041L 15.1341 18.4523ZM 20.4212 7.45868C 20.5603 6.84655 21.4327 4.02777 21.6429 2.0968C 21.6972 1.59084 21.7099 1.04739 21.6548 0.631559C 21.5981 0.228833 21.4358 -0.403357 20.8652 -0.766545C 20.2373 -1.16618 19.5521 -0.98223 19.077 -0.747052C 18.5799 -0.501008 18.0336 -0.0716274 17.4294 0.509335L 18.8156 1.951C 19.3667 1.42105 19.7392 1.15673 19.9642 1.04538C 20.2111 0.92317 20.0511 1.08603 19.7913 0.92069C 19.5888 0.791797 19.6376 0.649283 19.6744 0.910698C 19.713 1.159 19.7019 1.45416 19.6547 1.88035C 19.459 3.67796 18.6825 6.08446 18.4709 7.01543L 20.4212 7.45868ZM 17.4294 0.509335C 15.2316 2.62291 13.1827 4.42245 10.8399 6.24408L 12.0677 7.82278C 14.457 5.96389 16.5849 4.09552 18.8156 1.951L 17.4294 0.509335ZM 10.8399 6.24408C 10.2513 6.70194 9.85687 7.02297 9.64115 7.21475C 9.56906 7.27894 9.39659 7.42992 9.2882 7.59905C 9.26967 7.62796 9.14598 7.81217 9.12528 8.07939C 9.11274 8.24142 9.13464 8.49316 9.30436 8.73551C 9.47488 8.97901 9.70595 9.08651 9.8668 9.13003C 10.1301 9.20127 10.3486 9.14332 10.3811 9.13546C 10.4333 9.12181 10.5135 9.09527 10.552 9.08013C 10.7559 8.99786 11.0707 8.80356 11.3574 8.62104C 11.6802 8.41547 12.0948 8.14067 12.5472 7.83331C 13.4496 7.22025 14.5426 6.45097 15.4802 5.76312C 16.3909 5.09502 17.2413 4.4419 17.6078 4.07532L 16.1936 2.66111C 15.9576 2.8971 15.2458 3.45456 14.2972 4.15057C 13.3755 4.82684 12.3121 5.57524 11.4233 6.17896C 10.9802 6.48 10.5906 6.73838 10.2833 6.93394C 9.98255 7.12558 9.77249 7.23497 9.80367 7.22541C 9.81349 7.22145 9.85359 7.20535 9.91214 7.19123C 9.92803 7.18739 10.134 7.1304 10.3891 7.19944C 10.5459 7.24185 10.774 7.34745 10.9426 7.58825C 11.1104 7.82789 11.1315 8.07612 11.1193 8.23382C 11.0993 8.49237 10.9808 8.66463 10.9721 8.6782C 10.903 8.78595 10.8445 8.82125 10.9712 8.70836C 11.1532 8.54596 11.4963 8.26718 12.0677 7.82278L 10.8399 6.24408ZM 17.6078 4.07532C 18.2025 3.48022 18.6762 2.95986 19.0645 2.57692C 19.2546 2.38892 19.3937 2.26032 19.5321 2.15584C 19.6559 2.05887 19.7555 2.03345 19.7098 2.04112C 19.6817 2.04998 19.5879 2.06568 19.4813 2.02443C 19.3956 1.99127 19.3934 1.9556 19.4583 2.03893C 19.6083 2.23128 19.8298 2.67569 20.1245 3.57714L 22.0255 2.95566C 21.7262 2.04027 21.4181 1.29981 21.0355 0.809125C 20.8342 0.550936 20.5649 0.299214 20.203 0.15918C 19.8836 0.0546217 19.4056 0.0517381 19.11 0.133196C 18.544 0.311133 18.0468 0.771135 17.6592 1.15381C 17.2336 1.57461 16.7556 2.09953 16.1936 2.66111L 17.6078 4.07532ZM 20.1245 3.57714C 21.3915 7.44145 22.0088 11.5165 23.8458 15.2183L 25.6347 14.3239C 23.9159 10.9142 23.3379 6.98147 22.0255 2.95566L 20.1245 3.57714Z"/>
</defs>
</svg>
