<svg width="129" height="63" viewBox="0 0 129 63" version="1.1" xmlns="http://www.w3.org/2000/svg" xmlns:xlink="http://www.w3.org/1999/xlink">
<title>Group 4</title>
<desc>Created using Figma</desc>
<g id="Canvas" transform="translate(-722 -1181)">
<g id="Group 4">
<g id="Ellipse">
<mask id="mask0_outline_ins">
<use xlink:href="#path0_fill" fill="white" transform="matrix(0.745537 0.666464 -0.666464 0.745537 743.54 1181.39)"/>
</mask>
<g mask="url(#mask0_outline_ins)">
<use xlink:href="#path1_stroke_2x" transform="matrix(0.745537 0.666464 -0.666464 0.745537 743.54 1181.39)" fill="#FFFFFF"/>
</g>
</g>
<g id="Ellipse">
<mask id="mask1_outline_ins">
<use xlink:href="#path0_fill" fill="white" transform="matrix(0.745537 0.666464 -0.666464 0.745537 826.622 1197.98)"/>
</mask>
<g mask="url(#mask1_outline_ins)">
<use xlink:href="#path1_stroke_2x" transform="matrix(0.745537 0.666464 -0.666464 0.745537 826.622 1197.98)" fill="#FFFFFF"/>
</g>
</g>
<g id="Vector 5">
<use xlink:href="#path2_stroke" transform="matrix(0.981753 -0.190159 0.190159 0.981753 766.146 1209.11)" fill="#FFFFFF"/>
</g>
<g id="Vector 6">
<use xlink:href="#path3_stroke" transform="matrix(0.981753 -0.190159 0.190159 0.981753 765.322 1208.56)" fill="#FFFFFF"/>
</g>
</g>
</g>
<defs>
<path id="path0_fill" d="M 32 16C 32 24.8366 24.8366 32 16 32C 7.16344 32 0 24.8366 0 16C 0 7.16344 7.16344 0 16 0C 24.8366 0 32 7.16344 32 16Z"/>
<path id="path1_stroke_2x" d="M 30 16C 30 23.732 23.732 30 16 30L 16 34C 25.9411 34 34 25.9411 34 16L 30 16ZM 16 30C 8.26801 30 2 23.732 2 16L -2 16C -2 25.9411 6.05887 34 16 34L 16 30ZM 2 16C 2 8.26801 8.26801 2 16 2L 16 -2C 6.05887 -2 -2 6.05887 -2 16L 2 16ZM 16 2C 23.732 2 30 8.26801 30 16L 34 16C 34 6.05887 25.9411 -2 16 -2L 16 2Z"/>
<path id="path2_stroke" d="M 0.214407 -0.976744C -0.325034 -1.09516 -0.85833 -0.753848 -0.976744 -0.214407C -1.09516 0.325034 -0.753848 0.85833 -0.214407 0.976744L 0.214407 -0.976744ZM 18.9682 8.43033L 19.4941 7.57973L 19.4941 7.57973L 18.9682 8.43033ZM 28.1011 12.2942L 27.3202 12.9189L 28.1011 12.2942ZM 36.3753 15.6117L 37.0085 14.8378L 36.3753 15.6117ZM 37.9365 12.3333L 38.8047 11.8371L 38.8047 11.8371L 37.9365 12.3333ZM 37.2339 10.8892L 38.1478 10.483L 37.2339 10.8892ZM 38.639 14.7531L 39.6375 14.6976L 38.639 14.7531ZM 36.1802 18.2267L 35.9632 17.2505L 36.1802 18.2267ZM 29.7615 18.7763C 29.2675 19.0233 29.0673 19.624 29.3142 20.118C 29.5612 20.612 30.1619 20.8122 30.6559 20.5652L 29.7615 18.7763ZM -0.214407 0.976744C 6.43105 2.42641 12.6146 5.67751 18.4424 9.28092L 19.4941 7.57973C 13.6053 3.94016 7.11586 0.547303 0.214407 -0.976744L -0.214407 0.976744ZM 18.4424 9.28092C 19.0339 9.64161 19.8755 9.97193 20.7359 10.2578C 21.5919 10.5417 22.5397 10.8153 23.4506 11.101C 24.3613 11.3865 25.2067 11.6724 25.9256 12.0022C 26.6543 12.3352 27.1035 12.6481 27.3202 12.9189L 28.882 11.6695C 28.3633 11.0212 27.5588 10.5495 26.7567 10.1831C 25.9448 9.81358 24.9822 9.48535 24.0491 9.19266C 23.1162 8.90019 22.1843 8.63147 21.366 8.35966C 20.5521 8.08983 19.9248 7.85099 19.4941 7.57973L 18.4424 9.28092ZM 27.3202 12.9189C 28.4142 14.2864 30.3646 14.7515 31.8914 15.0955C 32.7048 15.2787 33.4835 15.4375 34.1782 15.6498C 34.8668 15.8577 35.3549 16.056 35.7421 16.3857L 37.0085 14.8378C 36.3899 14.3446 35.55 13.978 34.76 13.7363C 33.976 13.4991 33.1256 13.3235 32.331 13.1444C 30.6418 12.7639 29.4608 12.3931 28.882 11.6695L 27.3202 12.9189ZM 35.7421 16.3857C 36.6484 17.1272 37.5049 17.6444 38.2804 17.6878C 38.7342 17.7132 39.1969 17.5764 39.546 17.2114C 39.8626 16.8804 39.9822 16.4681 40.0265 16.1356C 40.1136 15.4809 39.9651 14.7062 39.7503 14.0083C 39.5313 13.3019 39.1834 12.5029 38.8047 11.8371L 37.0682 12.8294C 37.3957 13.3996 37.6557 13.9964 37.8388 14.5965C 38.0261 15.2052 38.0738 15.6478 38.044 15.8718C 38.0297 15.9786 38.0126 15.9211 38.1006 15.829C 38.2212 15.703 38.3637 15.6893 38.3921 15.6909C 38.4263 15.6902 38.3691 15.6932 38.294 15.6661C 38.2039 15.6371 38.1345 15.6062 38.007 15.5368C 37.7294 15.3893 37.4253 15.1799 37.0085 14.8378L 35.7421 16.3857ZM 38.8047 11.8371C 38.6986 11.6518 38.0938 10.6789 37.5226 9.76417C 37.2369 9.30679 36.9571 8.85971 36.7487 8.5273C 36.6445 8.361 36.5579 8.22294 36.4973 8.12663C 36.467 8.07834 36.4427 8.03986 36.4262 8.01368C 36.4178 8.00034 36.4105 7.98891 36.4056 7.98123C 36.4029 7.97688 36.3992 7.97122 36.3968 7.96744C 36.3949 7.96454 36.3905 7.95776 36.3875 7.95326C 36.3847 7.94905 36.3765 7.93711 36.3709 7.92926C 36.3655 7.92173 36.3494 7.90012 36.3385 7.88614C 36.3081 7.84965 35.947 7.58813 35.5557 7.50839L 35.5557 9.50839C 35.1644 9.42864 34.8033 9.16715 34.7729 9.13071C 34.7621 9.11678 34.746 9.09525 34.7407 9.08783C 34.7461 9.09547 34.7223 9.061 34.7248 9.06479C 34.7272 9.06844 34.7172 9.05316 34.7179 9.05438C 34.7182 9.05481 34.7173 9.05331 34.7187 9.05556C 34.7222 9.06109 34.7274 9.06929 34.7352 9.08156C 34.751 9.10661 34.7741 9.14337 34.8041 9.19107C 34.8642 9.28673 34.9502 9.42369 35.0541 9.58953C 35.2622 9.92138 35.5411 10.367 35.8262 10.8236C 36.3964 11.7366 36.9809 12.6762 37.0682 12.8294L 38.8047 11.8371ZM 35.5557 7.50839C 35.4347 7.51021 35.2406 7.53574 35.1195 7.56855C 34.9524 7.61932 34.7048 7.7339 34.5199 7.99194C 34.1226 8.54656 34.4114 9.11392 34.468 9.22147C 34.6365 9.54159 34.9701 9.87061 35.1811 10.0785C 35.4361 10.3296 35.7128 10.588 35.944 10.8318C 36.0585 10.9521 36.1421 11.0454 36.2185 11.1449C 36.2914 11.2375 36.3343 11.335 36.3201 11.2953L 38.1478 10.483C 37.972 10.0876 37.6451 9.71844 37.3936 9.45393C 37.1214 9.16816 36.8212 8.88679 36.5846 8.65364C 36.351 8.42371 36.2285 8.25228 36.2377 8.28975C 36.2469 8.30721 36.2919 8.39365 36.3087 8.52977C 36.3277 8.68413 36.3105 8.9267 36.1458 9.15665C 35.9914 9.37212 35.7945 9.45374 35.7008 9.48221C 35.7293 9.47479 35.5755 9.50847 35.591 9.50582C 35.5986 9.50544 35.5592 9.50874 35.5557 9.50839L 35.5557 7.50839ZM 36.3201 11.2953C 37.1098 13.072 37.5552 13.2718 37.6405 14.8085L 39.6375 14.6976C 39.525 12.6738 38.7107 11.7498 38.1478 10.483L 36.3201 11.2953ZM 37.6405 14.8085C 37.6694 15.3195 37.7166 15.7216 37.7247 16.0414C 37.735 16.3462 37.7405 16.4303 37.6732 16.5412C 37.6446 16.6032 37.4761 16.9143 35.9632 17.2505L 36.3971 19.2029C 37.9019 18.8685 39.0163 18.4047 39.4894 17.3786C 39.673 16.9455 39.734 16.4071 39.7239 15.985C 39.7114 15.5779 39.6621 15.1486 39.6375 14.6976L 37.6405 14.8085ZM 35.9632 17.2505C 33.7819 17.7497 32.221 17.5934 29.7615 18.7763L 30.6559 20.5652C 32.5654 19.5635 33.883 19.7471 36.3971 19.2029L 35.9632 17.2505Z"/>
<path id="path3_stroke" d="M 0 -1C -0.552285 -1 -1 -0.552285 -1 0C -1 0.552285 -0.552285 1 0 1L 0 -1ZM 3.96901 8.74656C 4.14366 9.2705 4.70998 9.55366 5.23392 9.37901C 5.75786 9.20436 6.04102 8.63804 5.86637 8.1141L 3.96901 8.74656ZM 0 1C 1.78234 1 5.34701 1 8.02052 1C 9.35727 1 10.4712 1 11.0282 1C 11.1675 1 11.2719 1 11.3363 1C 11.3685 1 11.3907 1 11.4022 1C 11.408 1 11.4111 1 11.4114 1C 11.4115 1 11.4115 0 11.4114 -1C 11.4114 -1 11.4113 -1 11.4112 -1C 11.4109 -1 11.4105 -1 11.4099 -1C 11.4087 -1 11.4068 -1 11.4042 -1C 11.3624 -1 11.1396 -1 10.694 -1L 10.694 1C 11.1396 1 11.3624 1 11.4042 1C 11.4068 1 11.4087 1 11.4099 1C 11.4105 1 11.4109 1 11.4112 1C 11.4113 1 11.4114 1 11.4114 1C 11.4115 0 11.4115 -1 11.4114 -1C 11.4111 -1 11.408 -1 11.4022 -1C 11.3907 -1 11.3685 -1 11.3363 -1C 11.2719 -1 11.1675 -1 11.0282 -1C 10.4712 -1 9.35727 -1 8.02052 -1C 5.34701 -1 1.78234 -1 0 -1L 0 1ZM 10.694 -1C 8.06605 -1 5.43808 -1 2.81011 -1L 2.81011 1C 5.43808 1 8.06605 1 10.694 1L 10.694 -1ZM 2.81011 -1C 2.23618 -1 1.6456 -0.853357 1.20776 -0.406958C 0.773934 0.0353458 0.657512 0.60192 0.655863 1.07731C 0.652736 1.97901 1.06058 3.055 1.49661 4.00261C 1.94996 4.98608 2.5261 6.02124 3.01 6.89022C 3.52249 7.81056 3.86667 8.43953 3.96901 8.74656L 5.86637 8.1141C 5.68847 7.58038 5.21285 6.73519 4.75735 5.9172C 4.27325 5.04785 3.7332 4.08052 3.3135 3.1666C 2.87647 2.21681 2.65441 1.5005 2.65585 1.08425C 2.6463 0.897202 2.67222 0.998172 2.63559 0.993505C 2.6231 1.0413 2.56849 0.98464 2.81011 1L 2.81011 -1Z"/>
</defs>
</svg>
