<svg width="30" height="98" viewBox="0 0 30 98" version="1.1" xmlns="http://www.w3.org/2000/svg" xmlns:xlink="http://www.w3.org/1999/xlink">
<title>Vector 9</title>
<desc>Created using Figma</desc>
<g id="Canvas" transform="translate(-626 -1338)">
<g id="Vector 9">
<use xlink:href="#path0_stroke" transform="translate(627 1339)" fill="#FFFFFF"/>
</g>
</g>
<defs>
<path id="path0_stroke" d="M 28.8458 0.533478C 29.1404 0.066348 29.0006 -0.551182 28.5335 -0.845814C 28.0663 -1.14045 27.4488 -1.00061 27.1542 -0.533478L 28.8458 0.533478ZM 6.64073 62.0322L 7.62852 62.1879L 6.64073 62.0322ZM 4.69444 83.0788L 5.67304 83.2845L 4.69444 83.0788ZM 1.251 85.2415L 2.07483 84.6746L 2.07483 84.6746L 1.251 85.2415ZM 1.00148 84.925L 1.99745 84.8352L 1.00148 84.925ZM 2.64834 94.7362L 1.7059 95.0706L 2.64834 94.7362ZM 10.0897 86.7027C 10.2558 86.176 9.96344 85.6144 9.43673 85.4482C 8.91002 85.2821 8.34838 85.5745 8.18227 86.1012L 10.0897 86.7027ZM 27.1542 -0.533478C 15.0524 18.6729 9.20197 39.3801 5.65293 61.8764L 7.62852 62.1879C 11.1556 39.8081 16.8796 19.4862 28.8458 0.533478L 27.1542 -0.533478ZM 5.65293 61.8764C 5.09588 65.4208 4.96476 69.0281 4.79541 72.5584C 4.62611 76.0886 4.42173 79.5286 3.71583 82.873L 5.67304 83.2845C 6.40389 79.7952 6.62319 76.1966 6.79312 72.6542C 6.963 69.1119 7.08665 65.6128 7.62852 62.1879L 5.65293 61.8764ZM 3.71583 82.873C 2.93283 86.6149 2.74642 91.5207 2.74625 95.3164L 4.74625 95.3164C 4.74607 91.558 4.9179 86.8588 5.67304 83.2845L 3.71583 82.873ZM 2.74625 95.3164C 2.74627 95.5266 2.74442 95.6674 2.7403 95.7649C 2.73861 95.8077 2.73574 95.8334 2.737 95.8245C 2.73646 95.8277 2.75022 95.7485 2.74665 95.7674C 2.74819 95.7601 2.77129 95.6351 2.853 95.4941C 2.89173 95.4272 3.00678 95.2436 3.24393 95.1172C 3.54787 94.955 3.8897 94.9708 4.15834 95.1053C 4.36822 95.2104 4.48149 95.36 4.52046 95.4147C 4.56939 95.4833 4.5982 95.5427 4.61157 95.572C 4.65405 95.665 4.66569 95.7354 4.65773 95.6996C 4.64821 95.6583 4.63667 95.5871 4.6173 95.4556C 4.53628 94.9073 4.40552 93.8029 4.21241 92.4882C 4.01969 91.1772 3.76011 89.6356 3.42805 88.2541C 3.10284 86.9038 2.67242 85.5431 2.07483 84.6746L 0.42718 85.8083C 0.795466 86.3436 1.15989 87.3781 1.48364 88.7224C 1.80054 90.0357 2.04404 91.4883 2.23366 92.779C 2.42289 94.0659 2.55373 95.1709 2.63873 95.7476C 2.66087 95.8973 2.68486 96.0395 2.70529 96.1331C 2.71231 96.1647 2.73753 96.2829 2.79224 96.4027C 2.81025 96.4404 2.85877 96.5263 2.89227 96.5761C 2.93414 96.6348 3.05021 96.7872 3.26281 96.8936C 3.53418 97.0295 3.87865 97.0453 4.18516 96.8818C 4.42486 96.754 4.54239 96.5677 4.58352 96.4967C 4.67002 96.3474 4.6976 96.2085 4.7033 96.1816C 4.71102 96.143 4.72039 96.0826 4.72445 96.0482C 4.73024 95.9945 4.73568 95.916 4.73859 95.8475C 4.74367 95.7223 4.74622 95.5402 4.74625 95.3164L 2.74625 95.3164ZM 2.07483 84.6746C 1.57294 83.9576 1.30493 83.2437 1.142 82.5554C 1.06132 82.2232 1.02315 81.9634 1.0071 81.7176C 0.989909 81.4926 1.02624 81.3052 1.00886 81.3605C 1.00761 81.3657 1.00023 81.3964 0.980015 81.4421C 0.962202 81.4823 0.915688 81.5772 0.817827 81.6771C 0.712632 81.7846 0.526267 81.917 0.260618 81.9471C -0.00343946 81.9771 -0.211326 81.8906 -0.332508 81.8147C -0.529464 81.6912 -0.591821 81.5415 -0.568378 81.5857C -0.548839 81.62 -0.537872 81.6484 -0.504122 81.755C -0.356261 82.2123 -0.156638 83.2151 0.00551462 85.0147L 1.99745 84.8352C 1.8321 83.0002 1.61759 81.8161 1.39886 81.1396C 1.34096 80.9628 1.26326 80.7736 1.19919 80.65C 1.13902 80.5363 0.998124 80.2883 0.729792 80.1201C 0.572923 80.0218 0.33114 79.9263 0.0352393 79.9599C -0.262253 79.9936 -0.478408 80.1423 -0.611077 80.2778C -0.83657 80.508 -0.909996 80.7845 -0.937078 80.8986C -1.06022 81.4174 -0.995103 82.2203 -0.802828 83.0219C -0.605448 83.8357 -0.197236 84.8884 0.42718 85.8083L 2.07483 84.6746ZM 0.00551462 85.0147C 0.268969 87.9386 0.651649 92.099 1.7059 95.0706L 3.59078 94.4018C 2.63806 91.7165 2.26747 87.832 1.99745 84.8352L 0.00551462 85.0147ZM 1.7059 95.0706C 1.83447 95.433 2.15492 95.7863 2.66042 95.8493C 3.03435 95.8959 3.34173 95.7543 3.49236 95.6745C 3.82606 95.4977 4.16677 95.1925 4.46753 94.8907C 5.08484 94.2695 5.87534 93.3048 6.63813 92.2838C 7.39903 91.2647 8.17574 90.1352 8.78892 89.1601C 9.3817 88.217 9.90348 87.2931 10.0897 86.7027L 8.18227 86.1012C 8.08528 86.4087 7.7069 87.1232 7.09563 88.0958C 6.50477 89.0362 5.77354 90.0995 5.03571 91.0871C 4.29977 92.0729 3.60074 92.9288 3.05083 93.479C 2.76797 93.7628 2.60565 93.8809 2.55602 93.9072C 2.51499 93.929 2.66063 93.8339 2.90766 93.8646C 3.28623 93.9118 3.51459 94.1871 3.59078 94.4018L 1.7059 95.0706Z"/>
</defs>
</svg>
