<svg width="33" height="60" viewBox="0 0 33 60" version="1.1" xmlns="http://www.w3.org/2000/svg" xmlns:xlink="http://www.w3.org/1999/xlink">
<title>Vector 11</title>
<desc>Created using Figma</desc>
<g id="Canvas" transform="translate(-848 -1381)">
<g id="Vector 11">
<use xlink:href="#path0_stroke" transform="translate(849.414 1382.7)" fill="#FFFFFF"/>
</g>
</g>
<defs>
<path id="path0_stroke" d="M 0.777245 -0.629198C 0.429748 -1.05846 -0.199938 -1.12474 -0.629198 -0.777245C -1.05846 -0.429748 -1.12474 0.199938 -0.777245 0.629198L 0.777245 -0.629198ZM 24.7402 48.5641L 25.7387 48.5087L 24.7402 48.5641ZM 29.3217 45.7643L 28.3731 45.4481L 29.3217 45.7643ZM 24.7402 55.8946L 24.0536 56.6216L 24.0536 56.6216L 24.7402 55.8946ZM 18.3585 46.4153C 18.1838 45.8914 17.6175 45.6082 17.0936 45.7829C 16.5696 45.9575 16.2865 46.5238 16.4611 47.0478L 18.3585 46.4153ZM -0.777245 0.629198C 8.51363 12.0942 14.0316 23.9867 20.5878 37.0994L 22.3767 36.205C 15.8331 23.118 10.2105 11.0356 0.777245 -0.629198L -0.777245 0.629198ZM 20.5878 37.0994C 22.0407 40.0051 23.5637 45.4137 23.7418 48.6196L 25.7387 48.5087C 25.544 45.0037 23.9392 39.33 22.3767 36.205L 20.5878 37.0994ZM 23.7418 48.6196C 23.7654 49.0451 23.9564 49.7717 24.1692 50.4876C 24.3948 51.2465 24.6952 52.1524 24.9972 52.9912C 25.2998 53.8312 25.6196 54.6454 25.8772 55.2064C 26.011 55.4967 26.1613 55.7808 26.2808 55.9569C 26.3275 56.0244 26.4739 56.2377 26.7184 56.3773C 26.8588 56.4575 27.1619 56.5858 27.535 56.4771C 27.9138 56.3667 28.1027 56.089 28.1799 55.9346L 26.3911 55.0401C 26.4519 54.9185 26.6205 54.6604 26.9755 54.557C 27.3248 54.4552 27.6004 54.5779 27.7102 54.6405C 27.8932 54.7451 27.9648 54.8757 27.9256 54.819C 27.8732 54.7466 27.8064 54.6154 27.6943 54.3708C 27.4598 53.8619 27.1717 53.127 26.8789 52.3135C 26.5854 51.4988 26.3028 50.6468 26.0863 49.9179C 25.857 49.1463 25.7468 48.6555 25.7387 48.5087L 23.7418 48.6196ZM 28.1799 55.9346C 28.9159 54.4626 29.204 52.5671 29.4306 50.8361C 29.6619 49.0679 29.8308 47.3807 30.2704 46.0806L 28.3731 45.4481C 27.8758 46.9589 27.6755 48.8351 27.4475 50.5766C 27.2147 52.3553 26.9532 53.9159 26.3911 55.0401L 28.1799 55.9346ZM 30.2704 46.0806C 30.556 45.2238 30.7578 44.6 30.8897 44.1773C 31.0086 43.7962 31.1007 43.4877 31.1254 43.3318C 31.1267 43.3233 31.1472 43.2101 31.1356 43.0734C 31.1309 43.0298 31.1118 42.9253 31.0953 42.8643C 31.0709 42.7843 31.0068 42.6075 30.8412 42.4437C 30.641 42.2458 30.3581 42.1341 30.059 42.1576C 29.8107 42.177 29.6387 42.2827 29.5645 42.3344C 29.4191 42.4357 29.3374 42.5519 29.3219 42.5733C 29.3018 42.6021 29.2712 42.6505 29.2588 42.6719C 29.2428 42.7008 29.2199 42.7461 29.2087 42.7701C 29.179 42.8353 29.135 42.9453 29.093 43.0586C 29.0135 43.2737 28.8965 43.6118 28.7655 44.0133C 28.5056 44.8096 28.1682 45.9227 27.8986 46.9912C 27.6361 48.0328 27.4054 49.1533 27.4054 49.9386L 29.4054 49.9386C 29.4054 49.4301 29.5735 48.5294 29.838 47.48C 30.0954 46.4575 30.4133 45.4101 30.6668 44.6338C 30.7923 44.2489 30.8965 43.9477 30.9687 43.7527C 31.0026 43.6609 31.0319 43.5933 31.0246 43.6082C 31.0265 43.6043 30.9886 43.6766 30.9981 43.6591C 31.0073 43.6435 30.9259 43.7692 30.9436 43.7439C 30.9307 43.7617 30.8511 43.8756 30.7076 43.9756C 30.6342 44.0267 30.463 44.132 30.2154 44.1514C 29.9171 44.1748 29.6348 44.0634 29.4351 43.866C 29.27 43.7027 29.2064 43.5267 29.1823 43.4478C 29.1548 43.3578 29.1462 43.2831 29.1428 43.2429C 29.1359 43.1625 29.1409 43.1003 29.1427 43.0793C 29.1409 43.0971 29.1515 43.0085 29.15 43.019C 29.1578 42.9551 28.9369 43.7569 28.3731 45.4481L 30.2704 46.0806ZM 27.4054 49.9386C 27.4066 50.8391 27.222 52.8294 26.6939 54.2988C 26.4217 55.0676 26.1481 55.412 25.9969 55.5024C 25.9697 55.5186 25.9685 55.5186 25.9388 55.5117C 25.8767 55.4972 25.7059 55.4311 25.4269 55.1676L 24.0536 56.6216C 24.4837 57.0278 24.9593 57.3372 25.4855 57.4596C 26.0441 57.5896 26.573 57.4878 27.0224 57.2194C 27.8243 56.7405 28.2897 55.7841 28.5793 54.9662C 29.1746 53.2619 29.4043 50.9347 29.4054 49.9386L 27.4054 49.9386ZM 25.4269 55.1676C 22.1491 52.0719 19.6231 50.2091 18.3585 46.4153L 16.4611 47.0478C 17.9259 51.4422 20.974 53.7131 24.0536 56.6216L 25.4269 55.1676Z"/>
</defs>
</svg>
