<svg width="17" height="30" viewBox="0 0 17 30" version="1.1" xmlns="http://www.w3.org/2000/svg" xmlns:xlink="http://www.w3.org/1999/xlink">
<title>Vector 10</title>
<desc>Created using Figma</desc>
<g id="Canvas" transform="translate(-683 -1410)">
<g id="Vector 10">
<use xlink:href="#path0_stroke" transform="translate(684.48 1411.69)" fill="#FFFFFF"/>
</g>
</g>
<defs>
<path id="path0_stroke" d="M 14.54 0.606043C 14.8747 0.166738 14.7899 -0.460723 14.3506 -0.795432C 13.9113 -1.13014 13.2838 -1.04535 12.9491 -0.606043L 14.54 0.606043ZM 4.78515 17.4098L 3.82163 17.1421L 4.78515 17.4098ZM 1.7817 20.2096L 2.7681 20.0452L 1.7817 20.2096ZM 0.96721 19.7006L 1.95558 19.5485L 0.96721 19.7006ZM 3.4616 26.3692L 2.53035 26.7336L 3.4616 26.3692ZM 9.19543 20.4749C 9.37007 19.951 9.08691 19.3847 8.56297 19.21C 8.03903 19.0354 7.47271 19.3185 7.29806 19.8425L 9.19543 20.4749ZM 12.9491 -0.606043C 8.96202 4.63165 5.59826 10.7711 3.82163 17.1421L 5.74866 17.6774C 7.45083 11.5248 10.6389 5.72171 14.54 0.606043L 12.9491 -0.606043ZM 3.82163 17.1421C 3.53204 18.1866 3.27977 19.3927 3.04942 20.4618C 2.81923 21.5303 2.62131 22.4264 2.42103 22.9531C 2.37692 23.0721 2.35644 23.12 2.32535 23.1704C 2.29721 23.2186 2.33637 23.1274 2.47464 23.0383C 2.68029 22.9058 2.99479 22.8538 3.28214 22.9964C 3.47698 23.0931 3.53713 23.2231 3.50806 23.1747C 3.46123 23.0966 3.35493 22.8462 3.2137 22.2882C 3.07555 21.7436 2.93055 21.0207 2.7681 20.0452L 0.79531 20.374C 0.96346 21.3821 1.12509 22.186 1.27484 22.7789C 1.42149 23.3583 1.58435 23.8559 1.79314 24.2038C 1.89188 24.3683 2.07647 24.6308 2.39302 24.7879C 2.80207 24.991 3.23555 24.9273 3.55812 24.7194C 3.81328 24.555 3.96727 24.3248 4.05254 24.1788C 4.13487 24.0349 4.22637 23.8333 4.29348 23.6559C 4.53807 22.9974 4.77272 21.9591 5.00456 20.883C 5.23625 19.8076 5.47549 18.6589 5.74866 17.6774L 3.82163 17.1421ZM 2.7681 20.0452C 2.56914 18.9313 2.07181 17.9709 1.67806 17.1231C 1.28327 16.2748 0.981762 15.5734 1 14.6609L -1 14.6609C -0.981762 15.9536 -0.55187 17.0699 -0.13553 17.9663C 0.28184 18.8631 0.675364 19.5745 0.79531 20.374L 2.7681 20.0452ZM 1 14.6609C 0.999853 14.5711 1.00075 14.5369 1.00373 14.5094C 1.00441 14.502 1.00254 14.5295 0.992056 14.5749C 0.986744 14.5979 0.975025 14.6442 0.951867 14.7019C 0.932405 14.7504 0.881885 14.8662 0.7743 14.9858C 0.657718 15.1154 0.424761 15.2982 0.078231 15.3119C -0.250698 15.3249 -0.480532 15.1763 -0.585454 15.0905C -0.691405 15.0039 -0.752825 14.9161 -0.778228 14.8776C -0.808079 14.8323 -0.826769 14.795 -0.835944 14.7757C -0.863598 14.7176 -0.86676 14.6909 -0.850786 14.7499C -0.790343 14.9703 -0.703639 15.4463 -0.600467 16.0688C -0.392915 17.3204 -0.151984 19.0022 -0.0211612 19.8526L 1.95558 19.5485C 1.8263 18.7083 1.58363 17.015 1.3726 15.7417C 1.26648 15.1019 1.16015 14.528 1.07989 14.2279C 1.05494 14.1371 1.00929 14.0035 0.969884 13.9161C 0.956558 13.8881 0.871645 13.6984 0.68023 13.542C 0.569282 13.4513 0.333681 13.3002 -0.000749856 13.3135C -0.352782 13.3274 -0.590974 13.513 -0.712517 13.6481C -0.903845 13.8608 -0.95078 14.0994 -0.956669 14.125C -0.968925 14.1818 -0.982351 14.2705 -0.987717 14.3246C -0.995227 14.4101 -0.999853 14.5368 -1 14.6609L 1 14.6609ZM -0.0211612 19.8526C 0.184699 21.1586 0.630028 22.3904 1.10912 23.5033C 1.58889 24.6157 2.11247 25.6629 2.53035 26.7336L 4.39284 26.0048C 3.94023 24.8509 3.40265 23.773 2.94587 22.7119C 2.4884 21.6512 2.12178 20.6609 1.95558 19.5485L -0.0211612 19.8526ZM 2.53035 26.7336C 2.63044 26.9894 2.84417 27.2994 3.23995 27.4453C 3.6039 27.5794 3.93342 27.5027 4.12563 27.4319C 4.48732 27.2987 4.80567 27.0227 5.03478 26.8006C 5.5155 26.3314 6.11566 25.5744 6.67237 24.7886C 7.22665 24.0052 7.79049 23.1264 8.2344 22.3729C 8.66436 21.6428 9.04459 20.9275 9.19543 20.4749L 7.29806 19.8425C 7.2229 20.0679 6.94916 20.614 6.511 21.3581C 6.08679 22.0789 5.56835 22.8871 5.04002 23.633C 4.51412 24.3764 4.03133 24.9908 3.64258 25.3647C 3.43695 25.5641 3.37394 25.5775 3.43436 25.5552C 3.47593 25.5399 3.67484 25.4741 3.93154 25.5687C 4.22008 25.675 4.34993 25.8951 4.39284 26.0048L 2.53035 26.7336Z"/>
</defs>
</svg>
